<svg width="512" height="512" viewBox="0 0 512 512" fill="none" xmlns="http://www.w3.org/2000/svg">
  <circle cx="256" cy="256" r="256" fill="#FFAE43"/>
  <circle cx="256" cy="256" r="192" fill="#FF671B"/>
  <path d="M232 118C232 109.4 241.6 104.2 248.8 108.9L315.3 152.2C318.9 154.5 321 158.5 321 162.8V244.2C321 252.8 311.3 258 304.1 253.2L237 208.5C233.9 206.4 232 202.9 232 199.1V118Z" fill="url(#paint0_linear)"/>
  <path d="M169.1 247.6L221.4 215.8C225 213.6 229.5 213.6 233.1 215.8L301.4 257.6C309.1 262.3 309.1 273.5 301.4 278.2L249.1 310C245.5 312.2 241 312.2 237.4 310L169.1 268.2C161.4 263.5 161.4 252.3 169.1 247.6Z" fill="url(#paint1_linear)"/>
  <path d="M149 288.7C149 279.3 159.4 273.6 167.3 278.7L230.3 319.2C234.5 321.9 237 326.5 237 331.5V372.2C237 381.6 226.6 387.3 218.7 382.2L155.7 341.7C151.5 339 149 334.4 149 329.4V288.7Z" fill="url(#paint2_linear)"/>
  <path d="M246 333.6C246 329.6 248.1 325.9 251.5 323.8L267.6 313.7C271.4 311.3 276.2 311.4 279.9 313.9L306.1 331.5C313.2 336.3 313 346.8 305.7 351.2L263.3 376.8C255.6 381.5 246 375.9 246 367V333.6Z" fill="url(#paint3_linear)"/>
  <defs>
    <linearGradient id="paint0_linear" x1="276.5" y1="107" x2="276.5" y2="255" gradientUnits="userSpaceOnUse">
      <stop stop-color="#FFF86B"/>
      <stop offset="1" stop-color="#FFF05A"/>
    </linearGradient>
    <linearGradient id="paint1_linear" x1="235.2" y1="214.1" x2="235.2" y2="311.7" gradientUnits="userSpaceOnUse">
      <stop stop-color="#FFF86B"/>
      <stop offset="1" stop-color="#FFF05A"/>
    </linearGradient>
    <linearGradient id="paint2_linear" x1="193" y1="276.8" x2="193" y2="384.1" gradientUnits="userSpaceOnUse">
      <stop stop-color="#FFF86B"/>
      <stop offset="1" stop-color="#FFF05A"/>
    </linearGradient>
    <linearGradient id="paint3_linear" x1="279.1" y1="311.9" x2="279.1" y2="378.5" gradientUnits="userSpaceOnUse">
      <stop stop-color="#FFF86B"/>
      <stop offset="1" stop-color="#FFF05A"/>
    </linearGradient>
  </defs>
</svg>
